<svg width="276" height="276" viewBox="0 0 276 276" fill="none" xmlns="http://www.w3.org/2000/svg">
  <path d="M246.32 27.6062L194.51 5.83683C186.604 2.59692 177.6 3.12235 170.289 7.2586L33.2151 91.181C26.0834 95.2397 22.0066 103.218 22.963 111.503C23.9193 119.788 29.6569 126.815 37.6885 129.495L54.2291 136.287L37.6885 143.078C29.6569 145.759 23.9193 152.786 22.963 161.07C22.0066 169.355 26.0834 177.333 33.2151 181.392L170.289 265.314C173.861 267.564 177.868 268.65 181.829 268.65C186.086 268.65 190.29 267.43 194.076 265.052L246.32 242.967C254.424 239.57 259.631 231.713 259.631 223.192V47.3806C259.631 38.8598 254.424 31.0021 246.32 27.6062Z" fill="#0065A9"/>
  <path d="M238.815 33.7562L186.932 11.9417C179.018 8.69847 169.987 9.22467 162.667 13.3672L25.5046 97.4322C18.3585 101.497 14.2731 109.49 15.2321 117.79C16.1912 126.089 21.941 133.127 29.9867 135.812L46.5545 142.614L29.9867 149.415C21.941 152.1 16.1912 159.138 15.2321 167.438C14.2731 175.738 18.3585 183.731 25.5046 187.796L162.667 271.861C166.247 274.115 170.262 275.204 174.23 275.204C178.494 275.204 182.705 273.981 186.498 271.599L238.815 249.471C246.933 246.067 252.149 238.195 252.149 229.656V53.5717C252.149 45.0328 246.933 37.1608 238.815 33.7562Z" fill="#007ACC"/>
  <path d="M194.017 27.6938L43.3544 141.713L43.3544 141.713L194.017 255.733C198.496 258.88 204.493 257.616 207.64 253.137C208.607 251.752 209.114 250.135 209.114 248.494L209.114 34.9334C209.114 30.8143 205.771 27.4709 201.652 27.4709C199.016 27.4709 196.52 28.9178 194.997 31.2139" fill="#1F9CF0"/>
  <path d="M127.89 141.713L43.3544 63.7177L43.3544 219.709L127.89 141.713Z" fill="url(#paint0_linear_1015_179)"/>
  <defs>
    <linearGradient id="paint0_linear_1015_179" x1="85.6222" y1="63.7177" x2="85.6222" y2="219.709" gradientUnits="userSpaceOnUse">
      <stop offset="0" stopColor="white"/>
      <stop offset="1" stopColor="white" stopOpacity="0"/>
    </linearGradient>
  </defs>
</svg> 